<svg xmlns="http://www.w3.org/2000/svg" width="22.746" height="22.746" viewBox="0 0 22.746 22.746">
  <g id="iconfinder_38-instagram_1161953" transform="translate(-3.4 -4.8)">
    <path id="Path_860" data-name="Path 860" d="M21.27,16.7a5.87,5.87,0,1,0,5.87,5.87A5.881,5.881,0,0,0,21.27,16.7Zm0,9.63a3.76,3.76,0,1,1,3.76-3.76A3.777,3.777,0,0,1,21.27,26.33Z" transform="translate(-6.497 -6.443)" fill="#ffbe2e"/>
    <circle id="Ellipse_105" data-name="Ellipse 105" cx="1.33" cy="1.33" r="1.33" transform="translate(19.542 8.79)" fill="#ffbe2e"/>
    <path id="Path_861" data-name="Path 861" d="M24.312,6.68A6.531,6.531,0,0,0,19.5,4.8H10.05A6.282,6.282,0,0,0,3.4,11.45v9.4a6.6,6.6,0,0,0,1.926,4.907A6.692,6.692,0,0,0,10.1,27.546h9.355a6.771,6.771,0,0,0,4.815-1.788,6.565,6.565,0,0,0,1.88-4.861V11.45A6.574,6.574,0,0,0,24.312,6.68ZM24.128,20.9a4.481,4.481,0,0,1-1.33,3.348,4.74,4.74,0,0,1-3.348,1.192H10.1a4.74,4.74,0,0,1-3.348-1.192A4.61,4.61,0,0,1,5.51,20.851v-9.4A4.572,4.572,0,0,1,6.748,8.1,4.663,4.663,0,0,1,10.1,6.91h9.447A4.572,4.572,0,0,1,22.89,8.148a4.732,4.732,0,0,1,1.238,3.3V20.9Z" fill="#ffbe2e"/>
  </g>
</svg>
