<svg xmlns="http://www.w3.org/2000/svg" width="24.733" height="20.243" viewBox="0 0 24.733 20.243">
  <path id="twitter" d="M24.733,2.7c-1.556.072-1.522.066-1.7.081L23.957.153S21.08,1.211,20.351,1.4a5.771,5.771,0,0,0-6.8-.546,4.707,4.707,0,0,0-2.262,4.84A12.554,12.554,0,0,1,3.16,1.115L2.477.3l-.51.936a5.658,5.658,0,0,0-.6,3.809,5.473,5.473,0,0,0,.53,1.487L1.31,6.3l-.069.978a5.218,5.218,0,0,0,.885,3.1,5.516,5.516,0,0,0,.689.85l-.3-.046.369,1.121a5.448,5.448,0,0,0,2.8,3.245c-1.306.554-2.361.908-4.1,1.478L0,17.55l1.465.8a15.382,15.382,0,0,0,4.484,1.632c4.336.68,9.219.126,12.505-2.834,2.768-2.493,3.677-6.04,3.488-9.731a2.306,2.306,0,0,1,.431-1.5c.614-.82,2.356-3.208,2.359-3.213ZM21.215,5.049A3.755,3.755,0,0,0,20.5,7.492c.19,3.723-.823,6.61-3.011,8.581-2.556,2.3-6.68,3.206-11.312,2.479a11.218,11.218,0,0,1-2.424-.72,38.431,38.431,0,0,0,4.39-1.8l2.531-1.2-2.795-.179a3.952,3.952,0,0,1-3.138-1.788A5.013,5.013,0,0,0,5.8,12.686l2.665-.742-2.688-.658a4,4,0,0,1-2.445-1.7A4.1,4.1,0,0,1,2.8,8.415a6.709,6.709,0,0,0,1.09.174l2.488.246L4.412,7.3A4.149,4.149,0,0,1,2.84,2.926,14.418,14.418,0,0,0,13,7.3a8.58,8.58,0,0,0-.149-1.229,3.327,3.327,0,0,1,1.462-3.983,4.328,4.328,0,0,1,5.106.423,1.3,1.3,0,0,0,1.19.318,10.016,10.016,0,0,0,.98-.3l-.625,1.785h.8l-.548.733Zm0,0" transform="translate(0 0)" fill="#ffbe2e" opacity="0.76"/>
</svg>
