<svg id="iconfinder_Vimeo_194908" xmlns="http://www.w3.org/2000/svg" width="25.459" height="25.459" viewBox="0 0 25.459 25.459">
  <g id="Vimeo">
    <path id="Oval-1" d="M25.459,12.73a12.73,12.73,0,1,0-12.73,12.73A12.73,12.73,0,0,0,25.459,12.73Zm-1.528,0a11.2,11.2,0,1,0-11.2,11.2A11.2,11.2,0,0,0,23.932,12.73ZM8.817,10.645c.314.385,1.514,5.037,1.914,5.9.349.753,1.313,1.748,2.37,1.037s4.57-3.822,5.2-7.5-4.228-2.9-4.742.3c1.286-.8,1.972.325,1.314,1.6s-1.257,2.1-1.571,2.1-.555-.852-.914-2.342c-.371-1.54-.369-4.314-1.913-4-1.456.3-3.37,2.667-3.37,2.667l.457.622S8.5,10.26,8.817,10.645Zm0,0" fill="#ffbe2e" fill-rule="evenodd"/>
  </g>
</svg>
