<svg xmlns="http://www.w3.org/2000/svg" width="25" height="25" viewBox="0 0 25 25">
  <g id="whatsapp" transform="translate(0 -0.001)" opacity="0.76">
    <path id="Path_4" data-name="Path 4" d="M6.047,23.216a12.408,12.408,0,0,0,6.409,1.775A12.564,12.564,0,0,0,25,12.5,12.5,12.5,0,1,0,1.784,18.954L0,25ZM1.474,12.5A10.978,10.978,0,1,1,6.549,21.8l-.282-.18-4.1,1.21,1.21-4.1-.18-.281A11.029,11.029,0,0,1,1.474,12.5Zm0,0" fill="#ffbe2e"/>
    <path id="Path_5" data-name="Path 5" d="M121.3,98.334a11.039,11.039,0,0,0,8.853,8.853c1.455.277,3.589.319,4.632-.724l.582-.582a1.554,1.554,0,0,0,0-2.2l-2.326-2.326a1.555,1.555,0,0,0-2.2,0l-.581.581a1.034,1.034,0,0,1-1.383,0l-2.32-2.417-.01-.011a.913.913,0,0,1,0-1.29l.581-.581a1.553,1.553,0,0,0,0-2.2L124.8,93.12a1.556,1.556,0,0,0-2.2,0l-.581.582h0c-.833.833-1.11,2.608-.724,4.633Zm1.76-3.6c.61-.6.578-.608.645-.608a.09.09,0,0,1,.064.026c2.451,2.464,2.352,2.319,2.352,2.39a.088.088,0,0,1-.026.064l-.582.581a2.375,2.375,0,0,0-.006,3.355l2.321,2.419.011.011a2.5,2.5,0,0,0,3.459,0l.581-.581a.09.09,0,0,1,.127,0c2.451,2.464,2.352,2.319,2.352,2.389a.088.088,0,0,1-.026.064l-.582.581c-.4.4-1.668.637-3.323.322a9.575,9.575,0,0,1-7.689-7.689c-.315-1.655-.077-2.925.321-3.323Zm0,0" transform="translate(-115.212 -88.14)" fill="#ffbe2e"/>
  </g>
</svg>
